<svg width="18" height="16" viewBox="0 0 18 16" fill="none" xmlns="http://www.w3.org/2000/svg">
<path d="M0.317933 7.67873L4.46549 9.22673L6.07085 14.3896C6.17357 14.7202 6.57791 14.8424 6.84629 14.623L9.15821 12.7383C9.40055 12.5408 9.74573 12.531 9.99899 12.7148L14.1689 15.7422C14.456 15.9509 14.8627 15.7936 14.9347 15.4467L17.9894 0.75323C18.068 0.37427 17.6956 0.0581303 17.3348 0.19769L0.313073 6.76415C-0.106987 6.92615 -0.103327 7.52087 0.317933 7.67873ZM5.81213 8.40269L13.918 3.41027C14.0637 3.32081 14.2136 3.51779 14.0885 3.63383L7.39877 9.85223C7.16363 10.0711 7.01195 10.364 6.96899 10.682L6.74111 12.3707C6.71093 12.5962 6.39419 12.6186 6.33197 12.4004L5.45555 9.32087C5.35517 8.96963 5.50145 8.59445 5.81213 8.40269Z" fill="white"/>
</svg>
