<svg width="18" height="20" viewBox="0 0 18 20" fill="none" xmlns="http://www.w3.org/2000/svg">
<path d="M10.9993 0H7.00099C3.15259 0 0.00390625 3.14869 0.00390625 6.99708V9.99584C0.00390625 12.6947 1.57825 15.1687 4.00224 16.3182V19.6668C4.00224 19.9667 4.37708 20.1166 4.577 19.8917L7.47579 16.9929H10.9993C14.8477 16.9929 17.9964 13.8442 17.9964 9.99584V6.99708C17.9964 3.14869 14.8477 0 10.9993 0ZM13.6232 13.1195L12.5987 14.1191C11.5241 15.1687 8.75026 13.9692 6.30128 11.4702C3.8523 8.97126 2.77775 6.17243 3.80232 5.12287L4.80191 4.12328C5.17675 3.74844 5.80149 3.77343 6.22631 4.14827L7.67571 5.64765C8.20049 6.17243 7.97558 7.07205 7.30087 7.27197C6.82606 7.42191 6.5012 7.94669 6.65114 8.42149C6.90103 9.52103 8.30045 10.9205 9.35001 11.1953C9.82481 11.2953 10.3496 11.0454 10.5245 10.5706C10.7494 9.89588 11.6491 9.69596 12.1488 10.2207L13.5982 11.7201C13.9981 12.07 13.9981 12.6947 13.6232 13.1195ZM9.89978 4.74802C9.79982 4.74802 9.69987 4.74802 9.59991 4.77301C9.42498 4.798 9.25005 4.64806 9.22506 4.47314C9.20007 4.29821 9.35001 4.12328 9.52494 4.09829C9.64989 4.0733 9.77483 4.0733 9.89978 4.0733C11.724 4.0733 13.2234 5.57268 13.2234 7.39692C13.2234 7.52187 13.2234 7.64681 13.1984 7.77176C13.1734 7.94669 12.9985 8.09663 12.8236 8.07164C12.6486 8.04665 12.4987 7.87172 12.5237 7.69679C12.5237 7.59683 12.5487 7.49688 12.5487 7.39692C12.5737 5.94752 11.3742 4.74802 9.89978 4.74802ZM11.8989 7.42191C11.8989 7.59684 11.749 7.74677 11.5741 7.74677C11.3992 7.74677 11.2492 7.59684 11.2492 7.42191C11.2492 6.69721 10.6495 6.09746 9.92477 6.09746C9.74985 6.09746 9.59991 5.94752 9.59991 5.77259C9.59991 5.59767 9.74985 5.44773 9.92477 5.44773C10.9993 5.42274 11.8989 6.32237 11.8989 7.42191ZM14.4479 8.49646C14.3979 8.67139 14.223 8.79634 14.0231 8.74636C13.8481 8.69638 13.7482 8.52145 13.7982 8.34652C13.8731 8.04665 13.8981 7.74677 13.8981 7.42191C13.8981 5.22282 12.0989 3.42357 9.89978 3.42357C9.79982 3.42357 9.69987 3.42357 9.59991 3.42357C9.42498 3.42357 9.25005 3.29863 9.25005 3.1237C9.25005 2.94877 9.375 2.77384 9.54993 2.77384C9.67488 2.77384 9.79982 2.74885 9.89978 2.74885C12.4737 2.74885 14.5728 4.84798 14.5728 7.42191C14.5728 7.77176 14.5229 8.14661 14.4479 8.49646Z" fill="white"/>
</svg>
