<svg width="12" height="16" viewBox="0 0 12 16" fill="none" xmlns="http://www.w3.org/2000/svg">
<mask id="path-1-outside-1_603_3513" maskUnits="userSpaceOnUse" x="-2.93851" y="-1.1831" width="18.3797" height="18.3899" fill="black">
<rect fill="white" x="-2.93851" y="-1.1831" width="18.3797" height="18.3899"/>
<path fill-rule="evenodd" clip-rule="evenodd" d="M6.71758 13.5761L10.7861 9.8416L11.4619 10.5787L6.60739 15.0347L6.26947 15.3449L5.93156 15.0347L1.07703 10.5787L1.75287 9.8416L5.71785 13.4811L5.71746 0.697652L6.71718 0.697621L6.71758 13.5761Z"/>
</mask>
<path fill-rule="evenodd" clip-rule="evenodd" d="M6.71758 13.5761L10.7861 9.8416L11.4619 10.5787L6.60739 15.0347L6.26947 15.3449L5.93156 15.0347L1.07703 10.5787L1.75287 9.8416L5.71785 13.4811L5.71746 0.697652L6.71718 0.697621L6.71758 13.5761Z" fill="white"/>
<path d="M6.71758 13.5761L6.51763 13.5761L6.51765 14.0311L6.85275 13.7235L6.71758 13.5761ZM10.7861 9.8416L10.9334 9.70636L10.7983 9.55895L10.6509 9.69419L10.7861 9.8416ZM11.4619 10.5787L11.5971 10.7261L11.7444 10.5909L11.6093 10.4435L11.4619 10.5787ZM6.60739 15.0347L6.47222 14.8873L6.60739 15.0347ZM6.26947 15.3449L6.13431 15.4923L6.26947 15.6164L6.40464 15.4923L6.26947 15.3449ZM5.93156 15.0347L5.79639 15.1821L5.79639 15.1821L5.93156 15.0347ZM1.07703 10.5787L0.929697 10.4435L0.794531 10.5909L0.941867 10.7261L1.07703 10.5787ZM1.75287 9.8416L1.88803 9.69419L1.7407 9.55895L1.60553 9.70636L1.75287 9.8416ZM5.71785 13.4811L5.58269 13.6285L5.91781 13.9361L5.9178 13.4811L5.71785 13.4811ZM5.71746 0.697652L5.71745 0.497596L5.51751 0.497603L5.51751 0.697658L5.71746 0.697652ZM6.71718 0.697621L6.91712 0.697614L6.91712 0.497559L6.71717 0.497565L6.71718 0.697621ZM6.85275 13.7235L10.9213 9.98902L10.6509 9.69419L6.58241 13.4287L6.85275 13.7235ZM10.6387 9.97685L11.3146 10.7139L11.6093 10.4435L10.9334 9.70636L10.6387 9.97685ZM11.3267 10.4313L6.47222 14.8873L6.74256 15.1821L11.5971 10.7261L11.3267 10.4313ZM6.47222 14.8873L6.13431 15.1975L6.40464 15.4923L6.74256 15.1821L6.47222 14.8873ZM6.40464 15.1975L6.06672 14.8873L5.79639 15.1821L6.13431 15.4923L6.40464 15.1975ZM6.06672 14.8873L1.2122 10.4313L0.941867 10.7261L5.79639 15.1821L6.06672 14.8873ZM1.22437 10.7139L1.9002 9.97685L1.60553 9.70636L0.929697 10.4435L1.22437 10.7139ZM1.6177 9.98902L5.58269 13.6285L5.85302 13.3337L1.88803 9.69419L1.6177 9.98902ZM5.9178 13.4811L5.9174 0.697645L5.51751 0.697658L5.51791 13.4811L5.9178 13.4811ZM5.71746 0.897708L6.71719 0.897676L6.71717 0.497565L5.71745 0.497596L5.71746 0.897708ZM6.51724 0.697627L6.51763 13.5761L6.91752 13.5761L6.91712 0.697614L6.51724 0.697627Z" fill="white" mask="url(#path-1-outside-1_603_3513)"/>
</svg>
