<svg width="14" height="14" viewBox="0 0 14 14" fill="none" xmlns="http://www.w3.org/2000/svg">
<g clip-path="url(#clip0_603_3477)">
<path d="M10.913 2.75659C10.7327 2.75659 10.5859 2.90335 10.5859 3.0837C10.5859 3.26404 10.7327 3.4108 10.913 3.4108C11.0934 3.4108 11.2401 3.26407 11.2401 3.0837C11.2401 2.90333 11.0934 2.75659 10.913 2.75659Z" fill="white"/>
<path d="M6.99755 4.10034C5.39855 4.10034 4.09766 5.40124 4.09766 7.00023C4.09766 8.59923 5.39855 9.90015 6.99755 9.90015C8.59657 9.90015 9.89747 8.59926 9.89747 7.00026C9.89747 5.40126 8.59657 4.10034 6.99755 4.10034Z" fill="white"/>
<path d="M10.0418 0.263184H3.95532C1.91867 0.263184 0.261719 1.92013 0.261719 3.95682V10.0433C0.261719 12.0799 1.91867 13.7369 3.95532 13.7369H10.0418C12.0785 13.7369 13.7354 12.0799 13.7354 10.0433V3.95682C13.7354 1.92013 12.0785 0.263184 10.0418 0.263184ZM6.99856 10.6956C4.9608 10.6956 3.30301 9.03779 3.30301 7.00003C3.30301 4.96226 4.96082 3.3045 6.99856 3.3045C9.0363 3.3045 10.6941 4.96229 10.6941 7.00003C10.6941 9.03776 9.0363 10.6956 6.99856 10.6956ZM10.9152 4.20624C10.2961 4.20624 9.79238 3.70255 9.79238 3.08345C9.79238 2.46434 10.2961 1.96063 10.9152 1.96063C11.5343 1.96063 12.038 2.46432 12.038 3.08342C12.038 3.70253 11.5343 4.20624 10.9152 4.20624Z" fill="white"/>
</g>
<defs>
<clipPath id="clip0_603_3477">
<rect width="13.4737" height="13.4737" fill="white" transform="translate(0.261719 0.263184)"/>
</clipPath>
</defs>
</svg>
