<svg width="31" height="22" viewBox="0 0 31 22" fill="none" xmlns="http://www.w3.org/2000/svg">
<path d="M27.4075 3.8875L15.6475 12.5425L3.8875 3.8875M2.5 1.0225C2.10218 1.0225 1.72064 1.18054 1.43934 1.46184C1.15804 1.74314 1 2.12468 1 2.5225V19.48C1 19.8778 1.15804 20.2594 1.43934 20.5407C1.72064 20.822 2.10218 20.98 2.5 20.98H28.795C29.1928 20.98 29.5744 20.822 29.8557 20.5407C30.137 20.2594 30.295 19.8778 30.295 19.48V2.5C30.295 2.10218 30.137 1.72064 29.8557 1.43934C29.5744 1.15803 29.1928 1 28.795 1H2.5V1.0225Z" stroke="white" stroke-width="1.2" stroke-linecap="round" stroke-linejoin="round"/>
</svg>
