<svg width="16" height="10" viewBox="0 0 16 10" fill="none" xmlns="http://www.w3.org/2000/svg">
<path d="M15.4447 8.39009C15.4039 8.32188 15.1519 7.77426 13.9392 6.6487C12.6696 5.47008 12.8402 5.66147 14.3693 3.62353C15.3007 2.38238 15.673 1.62443 15.5565 1.30041C15.4456 0.991542 14.7606 1.07302 14.7606 1.07302L12.483 1.08629C12.483 1.08629 12.3143 1.06355 12.1883 1.13839C12.0661 1.21229 11.9875 1.38283 11.9875 1.38283C11.9875 1.38283 11.6265 2.34354 11.1452 3.16023C10.1305 4.88362 9.72405 4.97457 9.55825 4.86751C9.17264 4.61834 9.26928 3.86512 9.26928 3.33077C9.26928 1.66043 9.52224 0.964066 8.77566 0.784053C8.52743 0.724364 8.34552 0.684572 7.71169 0.677939C6.89878 0.669413 6.20999 0.680782 5.8206 0.871217C5.561 0.998174 5.36109 1.28146 5.48331 1.29756C5.63395 1.31746 5.97503 1.38947 6.15599 1.6358C6.39001 1.95319 6.38148 2.66756 6.38148 2.66756C6.38148 2.66756 6.51602 4.6335 6.06788 4.87794C5.75996 5.04563 5.33835 4.70361 4.43354 3.13939C3.97025 2.3388 3.61969 1.45294 3.61969 1.45294C3.61969 1.45294 3.55243 1.28809 3.4321 1.19998C3.2862 1.09292 3.08155 1.05881 3.08155 1.05881L0.915703 1.07207C0.915703 1.07207 0.590731 1.08155 0.471353 1.22272C0.36524 1.34873 0.462826 1.60832 0.462826 1.60832C0.462826 1.60832 2.15874 5.57525 4.07826 7.57529C5.83955 9.40859 7.83864 9.28826 7.83864 9.28826H8.74439C8.74439 9.28826 9.0182 9.25795 9.15748 9.1073C9.28633 8.96898 9.28159 8.70938 9.28159 8.70938C9.28159 8.70938 9.26359 7.49381 9.82827 7.31475C10.3844 7.13852 11.0988 8.48957 11.8558 9.00972C12.428 9.4029 12.8629 9.31669 12.8629 9.31669L14.8876 9.28826C14.8876 9.28826 15.9468 9.22289 15.4447 8.39009Z" fill="white"/>
</svg>
