<svg width="86" height="70" viewBox="0 0 86 70" fill="none" xmlns="http://www.w3.org/2000/svg">
<path d="M41.7542 43.5913C50.7279 43.5913 58.0241 36.1887 58.0241 27.0842C58.0241 17.9796 50.7279 10.577 41.7542 10.577C32.7805 10.577 25.4844 17.9796 25.4844 27.0842C25.4844 36.1887 32.7805 43.5913 41.7542 43.5913ZM41.7542 13.2111C49.29 13.2111 55.4278 19.4385 55.4278 27.0842C55.4278 34.7299 49.29 40.9572 41.7542 40.9572C34.2184 40.9572 28.0806 34.7299 28.0806 27.0842C28.0673 19.4385 34.2051 13.2111 41.7542 13.2111Z" fill="url(#paint0_linear_603_3521)"/>
<path d="M10.4579 27.9081C11.8825 29.0969 12.4017 31.0691 12.5482 32.9332C12.6946 34.7974 12.5349 36.702 12.9742 38.5257C14.0394 42.9429 19.0188 45.9552 23.3592 44.807C24.7705 44.4288 26.0487 43.6993 27.46 43.3076C28.858 42.9159 30.4956 42.9159 31.6007 43.875L32.9986 45.604C33.3714 43.875 31.8403 42.2269 30.1627 41.7406C28.4852 41.2678 26.7011 41.5921 24.9569 41.7136C22.4805 41.8892 19.7777 41.538 17.967 39.8225C15.9965 37.9583 15.5838 34.8514 16.2229 32.2038C16.8619 29.5562 18.4064 27.2327 19.9242 24.9633C17.967 25.5982 16.2894 27.0571 15.3574 28.9213C15.637 26.6654 13.6666 24.5311 11.4431 24.2609C11.8026 24.7472 12.0822 25.2605 12.2286 25.8414C11.6694 25.0984 10.8706 24.5716 9.97855 24.3419C7.98144 24.7742 6.30386 26.4898 5.69141 28.489C6.51688 26.8275 9.03325 26.7194 10.4579 27.9081ZM13.4935 28.9753C13.56 28.2999 13.5334 27.6245 13.4269 26.9626C15.424 30.8124 14.1459 35.6619 15.8634 39.6468C17.4611 43.3211 21.655 43.2265 21.655 43.2265C19.9775 43.4427 18.2067 42.9699 16.8486 41.9433C14.4521 40.1196 14.1858 37.3775 14.0394 34.5542C13.8663 31.3663 12.7745 27.7866 9.51256 26.5708C11.1635 26.4628 12.8011 27.4624 13.4935 28.9753Z" fill="url(#paint1_linear_603_3521)"/>
<path d="M0.402245 50.4941C0.508758 49.3594 0.668526 49.0082 0.84161 48.5354C1.33423 47.117 2.27953 46.4821 3.77071 46.0229C5.19532 45.5906 6.58 46.0634 7.87147 46.6712C10.5742 47.941 13.3303 49.481 16.2993 50.1159C19.7743 50.8588 22.2241 49.6296 25.1266 47.7924C26.6444 46.8198 28.4817 45.496 30.3856 46.0769C29.3871 45.388 28.0423 45.5095 26.924 45.9688C25.8056 46.4281 24.8336 47.1711 23.7685 47.7249C20.8527 49.2378 17.1913 49.1973 14.3155 47.6168C12.6379 46.6983 11.2266 45.3069 9.49578 44.4694C7.71169 43.6049 5.58144 43.3887 3.73077 44.0912C1.88011 44.8071 0.362306 46.4956 0.0560818 48.4679C-0.0637452 49.1703 -0.010492 49.9268 0.402245 50.4941ZM10.1615 45.5906C11.0668 46.1174 11.5861 47.1981 12.5447 47.6303C10.8405 47.2521 9.38928 45.9958 7.77827 45.3339C7.41879 45.1853 7.01936 45.0232 6.63325 44.9017C6.51342 44.8746 6.3936 44.8341 6.28709 44.8206C6.07406 44.7801 5.10213 44.564 4.9823 44.645C5.51487 44.2668 8.33745 44.5234 10.1615 45.5906Z" fill="url(#paint2_linear_603_3521)"/>
<path d="M83.4389 48.4812C83.1327 46.4955 81.6149 44.8069 79.7642 44.1045C77.9136 43.4021 75.7833 43.6182 73.9992 44.4828C72.2817 45.3203 70.8704 46.7116 69.1795 47.6302C66.3037 49.2107 62.6423 49.2512 59.7265 47.7383C58.6614 47.1844 57.6894 46.4415 56.571 45.9822C55.4527 45.5229 54.1079 45.4013 53.1094 46.0902C55.0133 45.5229 56.8506 46.8467 58.3684 47.8058C61.2709 49.6564 63.7207 50.8722 67.1957 50.1292C70.1781 49.4943 72.9208 47.9409 75.6236 46.6846C76.915 46.0767 78.2997 45.6039 79.7243 46.0362C81.2155 46.4955 82.1608 47.1169 82.6534 48.5487C82.8132 49.0215 82.9729 49.3728 83.0928 50.5075C83.5055 49.9266 83.5588 49.1701 83.4389 48.4812ZM78.5393 44.6448C78.4062 44.5638 77.4343 44.7799 77.2346 44.8205C77.1147 44.8475 76.9949 44.8745 76.8884 44.9015C76.489 45.0231 76.1028 45.1852 75.7434 45.3338C74.1324 45.9822 72.6811 47.252 70.9769 47.6302C71.9355 47.1979 72.4415 46.1308 73.3602 45.5904C75.1576 44.5233 77.9801 44.2666 78.5393 44.6448Z" fill="url(#paint3_linear_603_3521)"/>
<path d="M4.01516 38.8634C2.5373 39.3362 1.32571 40.6195 0.926286 42.1324C2.3509 40.9437 4.2415 40.5384 6.07885 40.3628C6.74455 40.2953 7.41025 40.2547 8.03602 40.0116C9.76685 39.3092 9.68697 37.0127 8.82155 35.6079C8.47539 35.054 7.95614 34.6488 7.47683 34.2165C6.54484 33.3925 5.71937 32.4469 5.02703 31.4068C5.22674 32.9467 5.59954 34.4462 6.15873 35.8781C4.86726 36.2293 3.45597 35.5674 2.63049 34.5137C1.7917 33.4601 1.45885 32.0822 1.32571 30.7449C0.766517 32.3389 0.313835 34.0409 0.633374 35.7024C0.966227 37.3505 2.3509 38.9039 4.01516 38.8634ZM3.7755 36.9587C4.44121 37.4585 5.28 37.7557 6.10547 37.6476C6.34513 37.6206 6.59809 37.5531 6.77118 37.391C7.01083 37.1748 7.11735 36.8506 7.11735 36.54C7.11735 36.2158 7.03746 35.9051 6.95758 35.6079C7.67654 36.3914 8.3023 37.9989 7.03746 38.4852C6.11879 38.8364 5.05366 38.5257 4.26813 37.9313C3.48259 37.3505 2.91009 36.4994 2.39084 35.6619C2.27101 35.4728 2.15119 35.2837 2.15119 35.0676C2.59055 35.77 3.1098 36.4589 3.7755 36.9587Z" fill="url(#paint4_linear_603_3521)"/>
<path d="M18.1007 20.9108C19.4987 19.8842 21.2029 19.3844 22.8805 19.0332C25.1971 18.5469 27.101 17.6959 28.1129 15.3724C29.0183 13.3057 29.4443 10.7526 28.7387 8.57776C29.0715 9.99613 28.3393 11.6171 27.2209 12.6032C25.9161 13.7649 24.1853 14.3053 22.5609 14.9537C20.9366 15.6021 19.2723 16.4531 18.3936 17.9795C19.0194 16.2099 19.8582 14.5079 20.8967 12.9544C20.0978 13.6569 19.3256 14.3728 18.5134 15.0617C17.2353 16.1424 16.6095 17.6418 16.1968 19.2493C16.0503 18.5604 16.077 17.8445 16.1568 17.142C15.5311 17.7229 14.9453 18.3578 14.5991 19.1412C13.4141 21.7483 15.4113 22.7209 15.6775 25.1659C16.1568 23.0722 16.7427 21.8969 18.1007 20.9108ZM20.8833 16.7638C21.6556 16.3991 25.2237 15.2644 26.9679 13.8865C26.3688 15.2238 25.0507 16.6692 23.5329 16.7908C23.9589 16.9124 24.4116 16.9124 24.8376 16.8043C23.8657 17.4257 22.6941 17.6283 21.5757 17.8309C20.9499 17.9525 20.3108 18.0876 19.7117 18.3172C19.2857 18.4929 18.7398 18.7765 18.3936 19.3304C18.4735 19.1412 19.2723 17.5203 20.8833 16.7638Z" fill="url(#paint5_linear_603_3521)"/>
<path d="M68.2345 28.9076C67.3025 27.0435 65.6249 25.5846 63.6677 24.9497C65.1722 27.2191 66.7167 29.5425 67.369 32.1902C68.0081 34.8378 67.5954 37.9312 65.6249 39.8088C63.8142 41.5379 61.1114 41.8756 58.635 41.7C56.8908 41.5784 55.1067 41.2542 53.4292 41.727C51.7383 42.2133 50.2071 43.8613 50.5799 45.5904L51.9779 43.8613C53.083 42.9022 54.7206 42.9022 56.1186 43.294C57.5166 43.6857 58.8081 44.4152 60.2194 44.7934C64.5598 45.9551 69.5392 42.9428 70.6044 38.512C71.0437 36.7019 70.884 34.7838 71.0304 32.9196C71.1769 31.0555 71.6828 29.0697 73.1074 27.8945C74.532 26.7058 77.0617 26.8139 77.9005 28.4754C77.2881 26.4626 75.6105 24.7606 73.6133 24.3283C72.7346 24.558 71.9225 25.0983 71.3633 25.8278C71.5097 25.2469 71.7893 24.7336 72.1488 24.2473C69.9253 24.531 67.9549 26.6518 68.2345 28.9076ZM70.1384 26.9625C70.0319 27.6244 70.0052 28.2998 70.0718 28.9752C70.7641 27.4623 72.4018 26.4762 74.0394 26.5842C70.7908 27.8 69.6857 31.3797 69.5126 34.5676C69.3662 37.3773 69.0999 40.133 66.7033 41.9567C65.3453 42.9833 63.5878 43.4561 61.8969 43.24C61.8969 43.24 66.1042 43.3345 67.6886 39.6603C69.4194 35.6618 68.1413 30.8123 70.1384 26.9625Z" fill="url(#paint6_linear_603_3521)"/>
<path d="M76.104 34.2164C75.6114 34.6487 75.0922 35.0539 74.7593 35.6078C73.8939 37.0126 73.814 39.309 75.5448 40.0115C76.1706 40.2681 76.8363 40.3087 77.502 40.3627C79.3394 40.5383 81.23 40.9571 82.6546 42.1323C82.2418 40.6058 81.0436 39.3361 79.5657 38.8633C81.23 38.9038 82.6146 37.3503 82.9475 35.6888C83.2803 34.0273 82.8143 32.3253 82.2551 30.7313C82.122 32.0821 81.7892 33.4464 80.9504 34.5001C80.1116 35.5537 78.7136 36.2292 77.4221 35.8644C77.9813 34.4326 78.3541 32.9196 78.5538 31.3932C77.8615 32.4468 77.036 33.3924 76.104 34.2164ZM77.4621 37.6475C78.2875 37.7556 79.1263 37.4584 79.792 36.9586C80.4577 36.4588 80.977 35.7699 81.403 35.0404C81.403 35.2566 81.2832 35.4592 81.1634 35.6348C80.6441 36.4858 80.0849 37.3233 79.2861 37.9042C78.5006 38.4986 77.4354 38.7957 76.5168 38.458C75.2519 37.9717 75.8777 36.3642 76.5966 35.5808C76.5168 35.8914 76.4369 36.2021 76.4369 36.5128C76.4369 36.837 76.5567 37.1612 76.783 37.3639C76.9694 37.553 77.2224 37.6205 77.4621 37.6475Z" fill="url(#paint7_linear_603_3521)"/>
<path d="M60.6956 19.0196C62.3865 19.3708 64.0774 19.8706 65.4754 20.8972C66.8201 21.8833 67.4059 23.0721 67.8985 25.1523C68.1648 22.7073 70.162 21.7347 68.977 19.1276C68.6175 18.3577 68.045 17.7228 67.4192 17.1284C67.5124 17.8308 67.5258 18.5468 67.3793 19.2357C66.9666 17.6147 66.3541 16.1288 65.0627 15.0481C64.2505 14.3592 63.465 13.6433 62.6794 12.9408C63.7179 14.4943 64.57 16.1963 65.1825 17.9659C64.3038 16.4395 62.6395 15.575 61.0152 14.9401C59.3908 14.2917 57.66 13.7648 56.3552 12.5896C55.2368 11.6035 54.5046 9.96901 54.8374 8.56415C54.1318 10.739 54.5578 13.2921 55.4632 15.3588C56.4751 17.6958 58.379 18.5333 60.6956 19.0196ZM62.6927 16.7637C64.3037 17.5202 65.1026 19.1411 65.1958 19.3438C64.8363 18.7899 64.3037 18.4927 63.8777 18.3306C63.2786 18.101 62.6395 17.9659 62.0137 17.8444C60.882 17.6282 59.7104 17.4391 58.7518 16.8177C59.1778 16.9258 59.6305 16.9258 60.0566 16.8042C58.5387 16.6826 57.2073 15.2372 56.6215 13.8999C58.3523 15.2643 61.9205 16.4125 62.6927 16.7637Z" fill="url(#paint8_linear_603_3521)"/>
<path d="M45.3949 8.56426L46.8195 3.07989L43.9836 4.64685L41.7469 0L39.5234 4.64685L36.6875 3.07989L38.0988 8.56426H45.3949ZM45.102 5.30876C44.9023 5.98418 44.7159 6.65959 44.5162 7.33501C44.5162 6.75415 44.1168 6.17329 43.5842 5.98418C44.0901 5.75453 44.5961 5.5384 45.102 5.30876ZM41.7469 2.55307C43.3179 7.79429 41.7469 7.40255 41.7469 7.40255C41.7469 7.40255 40.0427 7.78078 41.7469 2.55307ZM39.803 5.98418C39.2438 6.1868 38.8577 6.76766 38.871 7.36202C38.6713 6.6731 38.4716 5.99768 38.2719 5.30876C38.7778 5.5384 39.2838 5.75453 39.803 5.98418Z" fill="url(#paint9_linear_603_3521)"/>
<path d="M34.6479 9.50983C35.287 9.01003 35.54 8.13199 35.5 7.30798C35.4601 6.48398 35.1539 5.714 34.861 4.94403C34.8876 6.53801 33.929 7.52412 32.744 8.57776C32.4777 7.96989 32.4777 7.96989 32.2115 7.37552C31.6922 8.37514 31.4126 9.50983 31.4392 10.6445L31.5324 10.9822C32.2115 10.0367 33.716 10.2258 34.6479 9.50983Z" fill="url(#paint10_linear_603_3521)"/>
<path d="M48.7988 9.50983C49.7175 10.2258 51.222 10.0367 51.9276 10.9822L52.0208 10.6445C52.0475 9.50983 51.7678 8.37514 51.2486 7.37552C50.9823 7.9834 50.9823 7.9834 50.716 8.57776C49.5311 7.52412 48.5725 6.53801 48.5991 4.94403C48.3062 5.7005 48 6.48398 47.96 7.30798C47.9068 8.13199 48.1597 9.01003 48.7988 9.50983Z" fill="url(#paint11_linear_603_3521)"/>
<path d="M48.3359 29.367C48.5756 29.1508 48.7753 28.9077 48.9484 28.6375C49.2679 28.0972 49.441 27.4623 49.441 26.7464C49.441 26.0439 49.2812 25.409 48.9484 24.8822C48.7886 24.612 48.5889 24.3689 48.3493 24.1528C48.3759 24.2068 48.4025 24.2608 48.4291 24.3149C48.722 24.9903 48.8552 25.8143 48.8552 26.7464C48.8552 27.6649 48.7087 28.4889 48.4291 29.1643C48.4025 29.2319 48.3759 29.2994 48.3359 29.367Z" fill="url(#paint12_linear_603_3521)"/>
<path d="M41.7581 40.3493C48.961 40.3493 54.8325 34.4056 54.8325 27.0842C54.8325 19.7762 48.9743 13.819 41.7581 13.819C34.5551 13.819 28.6836 19.7627 28.6836 27.0842C28.6836 34.4056 34.5418 40.3493 41.7581 40.3493ZM44.4342 34.8109H39.0952V33.8248H39.2284C39.4813 33.8248 39.721 33.7032 39.8941 33.5006C40.0538 33.298 40.1204 33.0278 40.0672 32.7711L38.0834 23.5855H39.0952L41.0391 32.5415C41.1323 32.9468 41.079 33.3655 40.9193 33.7437H41.7447L39.5479 23.5855H40.5997L42.5835 33.2169L42.8232 31.9471H43.6753L43.5022 32.7711C43.4489 33.0278 43.5022 33.2845 43.6753 33.5006C43.835 33.7032 44.0747 33.8248 44.341 33.8248H44.4475V34.8109H44.4342ZM49.8264 24.3285C50.2525 25.0309 50.4655 25.8414 50.4655 26.7464C50.4655 27.665 50.2525 28.4755 49.8264 29.1779C49.4003 29.8804 48.7879 30.4342 48.029 30.8259C47.2568 31.2177 46.3647 31.4203 45.3662 31.4203H42.6501L42.4637 30.4477H44.807C45.4461 30.4477 45.9919 30.2991 46.4446 30.029C46.8973 29.7453 47.2568 29.3265 47.4831 28.7727C47.7095 28.2188 47.8293 27.5434 47.8293 26.76C47.8293 25.963 47.7095 25.2875 47.4831 24.7472C47.2435 24.1934 46.8973 23.7746 46.4446 23.4909C46.3381 23.4234 46.2316 23.3694 46.0984 23.3153L46.3381 22.1941C46.8574 22.2887 47.5497 22.4373 48.029 22.6804C48.8012 23.0722 49.4003 23.626 49.8264 24.3285ZM43.2759 19.3709H47.3233V20.3435H46.9506C46.5112 20.3435 46.1118 20.6677 46.0186 21.1L44.1146 29.8939H43.2093L44.8336 21.5052C44.8869 21.2215 44.8203 20.9244 44.6339 20.7082C44.4475 20.4786 44.1812 20.357 43.9016 20.357H43.2892V19.3709H43.2759ZM36.2061 19.3709H41.545V20.3435H41.1057C40.8127 20.3435 40.5465 20.4786 40.3734 20.6947C40.187 20.9244 40.1204 21.208 40.1737 21.4917V21.5187H39.0819C39.042 21.127 39.1085 20.7488 39.2816 20.4111H38.3363C38.4029 20.5596 38.4562 20.7082 38.4961 20.8703L38.6425 21.5187H37.6307L37.5375 21.0865C37.4443 20.6407 37.0449 20.33 36.6055 20.33H36.2194V19.3709H36.2061ZM33.5566 30.4342H33.916C34.4353 30.4342 34.8747 30.0019 34.8747 29.4616V24.0043C34.8747 23.4774 34.4486 23.0317 33.916 23.0317H33.5566V22.0726H44.1679L43.9815 23.0452H37.2313V30.4342H38.9887L39.2017 31.4068H33.5566V30.4342Z" fill="url(#paint13_linear_603_3521)"/>
<path d="M35.8462 23.9638V29.5292C35.8462 29.8534 35.7662 30.1641 35.6328 30.4478H36.2596V23.0587H35.6328C35.7662 23.3289 35.8462 23.6396 35.8462 23.9638Z" fill="url(#paint14_linear_603_3521)"/>
<path d="M0.230469 62.2059L0.816293 60.8145V55.5328L0.230469 54.1549V54.0739H3.7454C4.7839 54.0739 5.67594 54.2225 6.43484 54.5197C7.19375 54.8169 7.77957 55.2626 8.19231 55.8705C8.60504 56.4784 8.81807 57.2483 8.81807 58.1804C8.81807 59.1125 8.61836 59.869 8.20562 60.4903C7.79289 61.0982 7.20706 61.5575 6.46147 61.8547C5.71588 62.1519 4.81052 62.3004 3.75871 62.3004H0.24378V62.2059H0.230469ZM3.94511 61.9087C4.49099 61.9087 4.93035 61.7736 5.22326 61.517C5.51617 61.2603 5.74251 60.8686 5.86234 60.3417C5.98216 59.8149 6.04874 59.1125 6.04874 58.2345C6.04874 57.3159 5.98217 56.5864 5.84902 56.0461C5.71588 55.4923 5.50285 55.087 5.19663 54.8304C4.89041 54.5737 4.46436 54.4386 3.91848 54.4386H3.42586V61.9222H3.94511V61.9087Z" fill="url(#paint15_linear_603_3521)"/>
<path d="M11.9934 61.8818C11.341 61.517 10.835 61.0172 10.4756 60.3823C10.1161 59.7339 9.92969 59.0045 9.92969 58.194C9.92969 57.37 10.1161 56.6406 10.4756 56.0057C10.835 55.3573 11.341 54.8575 11.9934 54.4927C12.6458 54.128 13.3914 53.9524 14.2301 53.9524C15.0689 53.9524 15.8145 54.128 16.4802 54.4927C17.1326 54.8575 17.6519 55.3573 18.0247 55.9921C18.3975 56.6405 18.5705 57.3565 18.5705 58.167C18.5705 58.991 18.3841 59.734 18.0247 60.3688C17.6652 61.0172 17.1459 61.517 16.4935 61.8818C15.8412 62.2465 15.0822 62.4221 14.2301 62.4221C13.3914 62.4221 12.6458 62.2465 11.9934 61.8818ZM15.4417 61.0848C15.6947 60.4364 15.8145 59.4773 15.8145 58.194C15.8145 56.8972 15.6947 55.9381 15.4417 55.2897C15.2021 54.6413 14.7893 54.3171 14.2301 54.3171C13.6843 54.3171 13.2982 54.6413 13.0585 55.2897C12.8188 55.9381 12.699 56.9107 12.699 58.194C12.699 59.4773 12.8188 60.4364 13.0585 61.0848C13.2982 61.7332 13.6976 62.0574 14.2301 62.0574C14.7893 62.0574 15.1888 61.7332 15.4417 61.0848Z" fill="url(#paint16_linear_603_3521)"/>
<path d="M19.5914 62.2058L20.1773 60.8144V55.5327L19.5914 54.1413V54.0603H23.4925V54.1413L22.7868 55.5327V61.9086H24.1981L26.2618 59.8688H26.3151L26.0488 62.2868H19.5781V62.2058H19.5914Z" fill="url(#paint17_linear_603_3521)"/>
<path d="M29.4507 61.8952C28.7717 61.5439 28.2258 61.0577 27.8397 60.4363C27.4536 59.8149 27.2539 59.0989 27.2539 58.302C27.2539 57.478 27.4403 56.7215 27.8131 56.0596C28.1859 55.3977 28.7185 54.8844 29.3975 54.5061C30.0765 54.1279 30.8753 53.9388 31.7674 53.9388C32.6594 53.9388 33.5914 54.0468 34.59 54.2765L34.7764 56.8296H34.6432C34.5234 56.4243 34.3237 56.0191 34.0707 55.6273C33.8045 55.2356 33.4982 54.9249 33.1387 54.6817C32.7793 54.4386 32.3932 54.317 31.9804 54.317C31.328 54.317 30.8487 54.6682 30.5159 55.3572C30.1963 56.0461 30.0366 57.0187 30.0366 58.2614C30.0366 59.0584 30.1164 59.7473 30.2762 60.3147C30.436 60.882 30.649 61.3143 30.9419 61.6115C31.2348 61.9087 31.581 62.0573 31.9804 62.0573C32.3798 62.0573 32.7659 61.9357 33.1254 61.6925C33.4849 61.4494 33.8044 61.1252 34.0574 60.747C34.3237 60.3552 34.5101 59.9635 34.6432 59.5447H34.7764L34.59 62.0978C34.0707 62.2194 33.5914 62.3004 33.1787 62.3544C32.7659 62.4085 32.2866 62.4355 31.7674 62.4355C30.902 62.422 30.1298 62.2464 29.4507 61.8952Z" fill="url(#paint18_linear_603_3521)"/>
<path d="M36.1055 62.2059L36.6913 60.8145V55.5328L36.1055 54.1549V54.0739H42.7492V56.4919H42.6826L40.8985 54.4386H39.3009V57.8697H40.1929L41.4711 56.9241H41.5776V59.3556H41.4711L40.1929 58.2345H39.3009V61.9087H41.1648L43.2285 59.869H43.2818L43.0155 62.2869H36.1055V62.2059Z" fill="url(#paint19_linear_603_3521)"/>
<path d="M48.149 55.5058L47.2969 54.155V54.0604H51.8769V54.155L50.9716 55.5328L52.5293 59.9771L54.2468 55.5193L53.3282 54.1415V54.0469H55.6315V54.1415L54.6463 55.5193L52.0101 62.2735H50.7585L48.149 55.5058Z" fill="url(#paint20_linear_603_3521)"/>
<path d="M56.5312 62.2057L57.1171 60.8279V55.5461L56.5312 54.1683V54.0872H60.3125V54.1683L59.7266 55.5461V60.8279L60.3125 62.2057V62.2868H56.5312V62.2057Z" fill="url(#paint21_linear_603_3521)"/>
<path d="M61.5133 62.2058L62.0991 60.8144V55.5327L61.5133 54.1413V54.0603H65.4144V54.1413L64.7087 55.5327V61.9086H66.12L68.1837 59.8688H68.237L67.9707 62.2868H61.5V62.2058H61.5133Z" fill="url(#paint22_linear_603_3521)"/>
<path d="M69.2242 62.2058L69.8101 60.8144V55.5327L69.2242 54.1413V54.0603H73.1253V54.1413L72.4196 55.5327V61.9086H73.8309L75.8946 59.8688H75.9479L75.6816 62.2868H69.2109V62.2058H69.2242Z" fill="url(#paint23_linear_603_3521)"/>
<path d="M76.7891 62.2059L77.761 60.8416L79.7581 55.5733L78.9726 54.1549V54.0739H81.9017L84.4846 60.8145L85.3101 62.2059V62.2869H80.8632V62.2059L81.702 60.828L81.3558 59.8419H78.5465L78.187 60.8145L79.2256 62.1924V62.2734H76.8157V62.2059H76.7891ZM81.2227 59.4637L79.9844 55.9786L78.6663 59.4637H81.2227Z" fill="url(#paint24_linear_603_3521)"/>
<path d="M13.9141 69.284V66.2987H14.4075V69.284H13.9141Z" fill="url(#paint25_linear_603_3521)"/>
<path d="M17.1231 67.2036H17.6291V69.2839H17.203L17.1631 69.0137C17.0166 69.2029 16.737 69.3244 16.484 69.3244C15.9914 69.3244 15.6719 69.0002 15.6719 68.4329V67.2036H16.1778V68.3518C16.1778 68.6895 16.3509 68.8652 16.6305 68.8652C16.9101 68.8652 17.1364 68.649 17.1364 68.3653V67.2036H17.1231Z" fill="url(#paint26_linear_603_3521)"/>
<path d="M18.7148 69.2839L19.4604 68.2168L18.7548 67.2036H19.3539L19.78 67.8926L20.206 67.2036H20.7918L20.0995 68.2303L20.8318 69.2974H20.246L19.78 68.5545L19.314 69.2974H18.7148V69.2839Z" fill="url(#paint27_linear_603_3521)"/>
<path d="M23.2169 67.2036H23.7228V69.2839H23.2967L23.2568 69.0137C23.1104 69.2029 22.8308 69.3244 22.5778 69.3244C22.0852 69.3244 21.7656 69.0002 21.7656 68.4329V67.2036H22.2716V68.3518C22.2716 68.6895 22.4446 68.8652 22.7242 68.8652C23.0038 68.8652 23.2302 68.649 23.2302 68.3653V67.2036H23.2169Z" fill="url(#paint28_linear_603_3521)"/>
<path d="M26.5201 67.3254L26.2938 67.7442C26.1873 67.6766 26.0808 67.6361 25.9742 67.6361C25.7479 67.6361 25.5349 67.8522 25.5216 68.2035V69.2976H25.0156V67.2174H25.4417L25.4816 67.501C25.5881 67.2984 25.7878 67.1768 26.0275 67.1768C26.2006 67.1633 26.3737 67.2174 26.5201 67.3254Z" fill="url(#paint29_linear_603_3521)"/>
<path d="M27.8294 69.9998L28.1224 69.2839L27.2969 67.2036H27.8428L28.3753 68.6895L28.9079 67.2036H29.4671L28.3753 69.9998H27.8294Z" fill="url(#paint30_linear_603_3521)"/>
<path d="M32.1133 68.2575C32.1133 67.6496 32.5793 67.1633 33.1917 67.1633C33.4979 67.1633 33.7509 67.2849 33.9373 67.447L33.6843 67.8117C33.5512 67.6901 33.4047 67.6226 33.2184 67.6226C32.8855 67.6226 32.6192 67.8928 32.6192 68.2575C32.6192 68.6222 32.8988 68.8789 33.2184 68.8789C33.4181 68.8789 33.5645 68.8113 33.6977 68.6897L33.9506 69.0545C33.7642 69.2301 33.5113 69.3381 33.205 69.3381C32.566 69.3517 32.1133 68.8518 32.1133 68.2575Z" fill="url(#paint31_linear_603_3521)"/>
<path d="M37.0119 68.0547V69.284H36.5059V68.1358C36.5059 67.7981 36.3328 67.6225 36.0532 67.6225C35.7736 67.6225 35.5473 67.8386 35.5473 68.1223V69.284H35.0547V66.2987H35.5473V67.4199C35.7071 67.2578 35.96 67.1497 36.1864 67.1497C36.6923 67.1632 37.0119 67.4874 37.0119 68.0547Z" fill="url(#paint32_linear_603_3521)"/>
<path d="M39.8292 67.2037H40.2686V69.284H39.8292L39.7893 69.0409C39.6428 69.2165 39.4298 69.338 39.1635 69.338C38.591 69.338 38.125 68.8517 38.125 68.2439C38.125 67.636 38.591 67.1497 39.1635 67.1497C39.4431 67.1497 39.6561 67.2713 39.8026 67.4469L39.8292 67.2037ZM39.7893 68.2439C39.7893 67.8926 39.523 67.636 39.2034 67.636C38.8839 67.636 38.6176 67.8926 38.6176 68.2439C38.6176 68.5951 38.8706 68.8517 39.2034 68.8517C39.5363 68.8517 39.7893 68.6086 39.7893 68.2439Z" fill="url(#paint33_linear_603_3521)"/>
<path d="M41.5938 69.284V66.2987H42.0872V69.284H41.5938Z" fill="url(#paint34_linear_603_3521)"/>
<path d="M43.7739 68.4195C43.8404 68.7166 44.0801 68.8923 44.373 68.8923C44.5727 68.8923 44.7325 68.8112 44.8656 68.7031L45.1053 69.0544C44.9189 69.23 44.6659 69.338 44.3464 69.338C43.7339 69.338 43.2812 68.8517 43.2812 68.2439C43.2812 67.636 43.7073 67.1497 44.2931 67.1497C44.9322 67.1497 45.305 67.609 45.305 68.2304C45.305 68.2844 45.305 68.3384 45.2917 68.406H43.7739V68.4195ZM43.7872 68.0277H44.8257C44.7591 67.7576 44.586 67.5955 44.3197 67.5955C44.0535 67.5955 43.8538 67.7576 43.7872 68.0277Z" fill="url(#paint35_linear_603_3521)"/>
<path d="M46.5624 69.2841V67.6631H46.2695V67.1903H46.5624V66.6905L47.0684 66.5689V67.1903H47.5211V67.6631H47.0684V69.2841H46.5624Z" fill="url(#paint36_linear_603_3521)"/>
<path d="M48.3672 69.0273L48.6068 68.6626C48.7666 68.7842 49.0329 68.8923 49.2726 68.8923C49.4723 68.8923 49.5921 68.8247 49.5921 68.6896C49.5921 68.5545 49.4723 68.5005 49.1261 68.406C48.7533 68.3114 48.4471 68.1088 48.4471 67.7711C48.4471 67.4334 48.74 67.1497 49.2726 67.1497C49.5255 67.1497 49.8184 67.2442 50.0448 67.4063L49.8051 67.7711C49.672 67.6765 49.4456 67.5955 49.2592 67.5955C49.0595 67.5955 48.9663 67.663 48.9663 67.7711C48.9663 67.8791 49.0595 67.9467 49.3924 68.0277C49.8051 68.1358 50.1113 68.2979 50.1113 68.6761C50.1113 69.0544 49.7785 69.3245 49.2992 69.3245C48.9131 69.338 48.6068 69.2165 48.3672 69.0273Z" fill="url(#paint37_linear_603_3521)"/>
<path d="M55.5199 69.2839H54.9341L54.7344 69.0273C54.508 69.2164 54.2284 69.338 53.9089 69.338C53.3231 69.338 52.8438 68.9733 52.8438 68.3654C52.8438 67.9601 53.11 67.5684 53.5095 67.4198L53.1367 66.9335V66.4877H54.8808V66.9875H53.7757L54.7211 68.2303C54.7876 68.0547 54.8276 67.8386 54.8276 67.6224H55.3069C55.3202 68.0007 55.2137 68.3654 55.0406 68.6491L55.5199 69.2839ZM54.4548 68.6491L53.7891 67.7845C53.5228 67.8115 53.363 68.0547 53.363 68.2843C53.363 68.6626 53.6426 68.8382 53.9621 68.8382C54.1752 68.8382 54.3349 68.7706 54.4548 68.6491Z" fill="url(#paint38_linear_603_3521)"/>
<path d="M58.9794 69.2839L58.1406 67.2036H58.6865L59.2191 68.7166L59.7516 67.2036H60.2975L59.4587 69.2839H58.9794Z" fill="url(#paint39_linear_603_3521)"/>
<path d="M61.3242 66.5418C61.3242 66.3932 61.4442 66.2311 61.6443 66.2311C61.831 66.2311 61.9643 66.3797 61.9643 66.5418C61.9643 66.6904 61.8443 66.839 61.6443 66.839C61.4442 66.8525 61.3242 66.7039 61.3242 66.5418ZM61.3776 69.284V67.2037H61.8843V69.284H61.3776Z" fill="url(#paint40_linear_603_3521)"/>
<path d="M63.2031 69.284V66.2987H63.6966V69.284H63.2031Z" fill="url(#paint41_linear_603_3521)"/>
<path d="M65.0273 69.284V66.2987H65.5208V69.284H65.0273Z" fill="url(#paint42_linear_603_3521)"/>
<path d="M68.4229 67.2037H68.8623V69.284H68.4229L68.383 69.0409C68.2366 69.2165 68.0235 69.338 67.7572 69.338C67.1847 69.338 66.7188 68.8517 66.7188 68.2439C66.7188 67.636 67.1847 67.1497 67.7572 67.1497C68.0368 67.1497 68.2499 67.2713 68.3963 67.4469L68.4229 67.2037ZM68.3963 68.2439C68.3963 67.8926 68.13 67.636 67.8105 67.636C67.491 67.636 67.2247 67.8926 67.2247 68.2439C67.2247 68.5951 67.4776 68.8517 67.8105 68.8517C68.1434 68.8517 68.3963 68.6086 68.3963 68.2439Z" fill="url(#paint43_linear_603_3521)"/>
<path d="M69.9844 69.0273L70.224 68.6626C70.3838 68.7842 70.6501 68.8923 70.8897 68.8923C71.0894 68.8923 71.2093 68.8247 71.2093 68.6896C71.2093 68.5545 71.0894 68.5005 70.7433 68.406C70.3705 68.3114 70.0643 68.1088 70.0643 67.7711C70.0643 67.4334 70.3572 67.1497 70.8897 67.1497C71.1427 67.1497 71.4356 67.2442 71.6619 67.4063L71.4223 67.7711C71.2891 67.6765 71.0628 67.5955 70.8764 67.5955C70.6767 67.5955 70.5835 67.663 70.5835 67.7711C70.5835 67.8791 70.6767 67.9467 71.0096 68.0277C71.4223 68.1358 71.7285 68.2979 71.7285 68.6761C71.7285 69.0544 71.3957 69.3245 70.9164 69.3245C70.5436 69.338 70.224 69.2165 69.9844 69.0273Z" fill="url(#paint44_linear_603_3521)"/>
<defs>
<linearGradient id="paint0_linear_603_3521" x1="-0.00620369" y1="26.8099" x2="81.4762" y2="27.3348" gradientUnits="userSpaceOnUse">
<stop stop-color="#DFDAD7"/>
<stop offset="0.0658409" stop-color="#CEC9C8"/>
<stop offset="0.1916" stop-color="#A49FA3"/>
<stop offset="0.264" stop-color="#8B878D"/>
<stop offset="0.5225" stop-color="#F3F4F4"/>
<stop offset="0.589" stop-color="#E2E1E2"/>
<stop offset="0.7167" stop-color="#B8B4B7"/>
<stop offset="0.8764" stop-color="#807C81"/>
<stop offset="1" stop-color="#A7A9AB"/>
</linearGradient>
<linearGradient id="paint1_linear_603_3521" x1="-0.0524478" y1="34.7804" x2="81.43" y2="35.3053" gradientUnits="userSpaceOnUse">
<stop stop-color="#DFDAD7"/>
<stop offset="0.0658409" stop-color="#CEC9C8"/>
<stop offset="0.1916" stop-color="#A49FA3"/>
<stop offset="0.264" stop-color="#8B878D"/>
<stop offset="0.5225" stop-color="#F3F4F4"/>
<stop offset="0.589" stop-color="#E2E1E2"/>
<stop offset="0.7167" stop-color="#B8B4B7"/>
<stop offset="0.8764" stop-color="#807C81"/>
<stop offset="1" stop-color="#A7A9AB"/>
</linearGradient>
<linearGradient id="paint2_linear_603_3521" x1="-0.13503" y1="47.0623" x2="81.3474" y2="47.5872" gradientUnits="userSpaceOnUse">
<stop stop-color="#DFDAD7"/>
<stop offset="0.0658409" stop-color="#CEC9C8"/>
<stop offset="0.1916" stop-color="#A49FA3"/>
<stop offset="0.264" stop-color="#8B878D"/>
<stop offset="0.5225" stop-color="#F3F4F4"/>
<stop offset="0.589" stop-color="#E2E1E2"/>
<stop offset="0.7167" stop-color="#B8B4B7"/>
<stop offset="0.8764" stop-color="#807C81"/>
<stop offset="1" stop-color="#A7A9AB"/>
</linearGradient>
<linearGradient id="paint3_linear_603_3521" x1="-0.135183" y1="46.5514" x2="81.3473" y2="47.0763" gradientUnits="userSpaceOnUse">
<stop stop-color="#DFDAD7"/>
<stop offset="0.0658409" stop-color="#CEC9C8"/>
<stop offset="0.1916" stop-color="#A49FA3"/>
<stop offset="0.264" stop-color="#8B878D"/>
<stop offset="0.5225" stop-color="#F3F4F4"/>
<stop offset="0.589" stop-color="#E2E1E2"/>
<stop offset="0.7167" stop-color="#B8B4B7"/>
<stop offset="0.8764" stop-color="#807C81"/>
<stop offset="1" stop-color="#A7A9AB"/>
</linearGradient>
<linearGradient id="paint4_linear_603_3521" x1="-0.0617288" y1="36.4284" x2="81.4207" y2="36.9533" gradientUnits="userSpaceOnUse">
<stop stop-color="#DFDAD7"/>
<stop offset="0.0658409" stop-color="#CEC9C8"/>
<stop offset="0.1916" stop-color="#A49FA3"/>
<stop offset="0.264" stop-color="#8B878D"/>
<stop offset="0.5225" stop-color="#F3F4F4"/>
<stop offset="0.589" stop-color="#E2E1E2"/>
<stop offset="0.7167" stop-color="#B8B4B7"/>
<stop offset="0.8764" stop-color="#807C81"/>
<stop offset="1" stop-color="#A7A9AB"/>
</linearGradient>
<linearGradient id="paint5_linear_603_3521" x1="0.0644537" y1="16.7192" x2="81.5469" y2="17.2441" gradientUnits="userSpaceOnUse">
<stop stop-color="#DFDAD7"/>
<stop offset="0.0658409" stop-color="#CEC9C8"/>
<stop offset="0.1916" stop-color="#A49FA3"/>
<stop offset="0.264" stop-color="#8B878D"/>
<stop offset="0.5225" stop-color="#F3F4F4"/>
<stop offset="0.589" stop-color="#E2E1E2"/>
<stop offset="0.7167" stop-color="#B8B4B7"/>
<stop offset="0.8764" stop-color="#807C81"/>
<stop offset="1" stop-color="#A7A9AB"/>
</linearGradient>
<linearGradient id="paint6_linear_603_3521" x1="-0.0574269" y1="34.5207" x2="81.425" y2="35.0456" gradientUnits="userSpaceOnUse">
<stop stop-color="#DFDAD7"/>
<stop offset="0.0658409" stop-color="#CEC9C8"/>
<stop offset="0.1916" stop-color="#A49FA3"/>
<stop offset="0.264" stop-color="#8B878D"/>
<stop offset="0.5225" stop-color="#F3F4F4"/>
<stop offset="0.589" stop-color="#E2E1E2"/>
<stop offset="0.7167" stop-color="#B8B4B7"/>
<stop offset="0.8764" stop-color="#807C81"/>
<stop offset="1" stop-color="#A7A9AB"/>
</linearGradient>
<linearGradient id="paint7_linear_603_3521" x1="-0.0653343" y1="35.8889" x2="81.4172" y2="36.4138" gradientUnits="userSpaceOnUse">
<stop stop-color="#DFDAD7"/>
<stop offset="0.0658409" stop-color="#CEC9C8"/>
<stop offset="0.1916" stop-color="#A49FA3"/>
<stop offset="0.264" stop-color="#8B878D"/>
<stop offset="0.5225" stop-color="#F3F4F4"/>
<stop offset="0.589" stop-color="#E2E1E2"/>
<stop offset="0.7167" stop-color="#B8B4B7"/>
<stop offset="0.8764" stop-color="#807C81"/>
<stop offset="1" stop-color="#A7A9AB"/>
</linearGradient>
<linearGradient id="paint8_linear_603_3521" x1="0.0691872" y1="16.4595" x2="81.5517" y2="16.9844" gradientUnits="userSpaceOnUse">
<stop stop-color="#DFDAD7"/>
<stop offset="0.0658409" stop-color="#CEC9C8"/>
<stop offset="0.1916" stop-color="#A49FA3"/>
<stop offset="0.264" stop-color="#8B878D"/>
<stop offset="0.5225" stop-color="#F3F4F4"/>
<stop offset="0.589" stop-color="#E2E1E2"/>
<stop offset="0.7167" stop-color="#B8B4B7"/>
<stop offset="0.8764" stop-color="#807C81"/>
<stop offset="1" stop-color="#A7A9AB"/>
</linearGradient>
<linearGradient id="paint9_linear_603_3521" x1="0.14652" y1="4.0227" x2="81.629" y2="4.54761" gradientUnits="userSpaceOnUse">
<stop stop-color="#DFDAD7"/>
<stop offset="0.0658409" stop-color="#CEC9C8"/>
<stop offset="0.1916" stop-color="#A49FA3"/>
<stop offset="0.264" stop-color="#8B878D"/>
<stop offset="0.5225" stop-color="#F3F4F4"/>
<stop offset="0.589" stop-color="#E2E1E2"/>
<stop offset="0.7167" stop-color="#B8B4B7"/>
<stop offset="0.8764" stop-color="#807C81"/>
<stop offset="1" stop-color="#A7A9AB"/>
</linearGradient>
<linearGradient id="paint10_linear_603_3521" x1="0.120049" y1="7.74755" x2="81.6025" y2="8.27246" gradientUnits="userSpaceOnUse">
<stop stop-color="#DFDAD7"/>
<stop offset="0.0658409" stop-color="#CEC9C8"/>
<stop offset="0.1916" stop-color="#A49FA3"/>
<stop offset="0.264" stop-color="#8B878D"/>
<stop offset="0.5225" stop-color="#F3F4F4"/>
<stop offset="0.589" stop-color="#E2E1E2"/>
<stop offset="0.7167" stop-color="#B8B4B7"/>
<stop offset="0.8764" stop-color="#807C81"/>
<stop offset="1" stop-color="#A7A9AB"/>
</linearGradient>
<linearGradient id="paint11_linear_603_3521" x1="0.118745" y1="7.63433" x2="81.6012" y2="8.15924" gradientUnits="userSpaceOnUse">
<stop stop-color="#DFDAD7"/>
<stop offset="0.0658409" stop-color="#CEC9C8"/>
<stop offset="0.1916" stop-color="#A49FA3"/>
<stop offset="0.264" stop-color="#8B878D"/>
<stop offset="0.5225" stop-color="#F3F4F4"/>
<stop offset="0.589" stop-color="#E2E1E2"/>
<stop offset="0.7167" stop-color="#B8B4B7"/>
<stop offset="0.8764" stop-color="#807C81"/>
<stop offset="1" stop-color="#A7A9AB"/>
</linearGradient>
<linearGradient id="paint12_linear_603_3521" x1="0.00079224" y1="26.4384" x2="81.4831" y2="26.9633" gradientUnits="userSpaceOnUse">
<stop stop-color="#DFDAD7"/>
<stop offset="0.0658409" stop-color="#CEC9C8"/>
<stop offset="0.1916" stop-color="#A49FA3"/>
<stop offset="0.264" stop-color="#8B878D"/>
<stop offset="0.5225" stop-color="#F3F4F4"/>
<stop offset="0.589" stop-color="#E2E1E2"/>
<stop offset="0.7167" stop-color="#B8B4B7"/>
<stop offset="0.8764" stop-color="#807C81"/>
<stop offset="1" stop-color="#A7A9AB"/>
</linearGradient>
<linearGradient id="paint13_linear_603_3521" x1="-0.00237351" y1="26.8101" x2="81.4801" y2="27.335" gradientUnits="userSpaceOnUse">
<stop stop-color="#DFDAD7"/>
<stop offset="0.0658409" stop-color="#CEC9C8"/>
<stop offset="0.1916" stop-color="#A49FA3"/>
<stop offset="0.264" stop-color="#8B878D"/>
<stop offset="0.5225" stop-color="#F3F4F4"/>
<stop offset="0.589" stop-color="#E2E1E2"/>
<stop offset="0.7167" stop-color="#B8B4B7"/>
<stop offset="0.8764" stop-color="#807C81"/>
<stop offset="1" stop-color="#A7A9AB"/>
</linearGradient>
<linearGradient id="paint14_linear_603_3521" x1="-0.05998" y1="26.5084" x2="81.5569" y2="27.035" gradientUnits="userSpaceOnUse">
<stop stop-color="#DFDAD7"/>
<stop offset="0.0658409" stop-color="#CEC9C8"/>
<stop offset="0.1916" stop-color="#A49FA3"/>
<stop offset="0.264" stop-color="#8B878D"/>
<stop offset="0.5225" stop-color="#F3F4F4"/>
<stop offset="0.589" stop-color="#E2E1E2"/>
<stop offset="0.7167" stop-color="#B8B4B7"/>
<stop offset="0.8764" stop-color="#807C81"/>
<stop offset="1" stop-color="#A7A9AB"/>
</linearGradient>
<linearGradient id="paint15_linear_603_3521" x1="-0.205209" y1="58.1603" x2="81.2772" y2="58.6852" gradientUnits="userSpaceOnUse">
<stop stop-color="#DFDAD7"/>
<stop offset="0.0658409" stop-color="#CEC9C8"/>
<stop offset="0.1916" stop-color="#A49FA3"/>
<stop offset="0.264" stop-color="#8B878D"/>
<stop offset="0.5225" stop-color="#F3F4F4"/>
<stop offset="0.589" stop-color="#E2E1E2"/>
<stop offset="0.7167" stop-color="#B8B4B7"/>
<stop offset="0.8764" stop-color="#807C81"/>
<stop offset="1" stop-color="#A7A9AB"/>
</linearGradient>
<linearGradient id="paint16_linear_603_3521" x1="-0.211493" y1="58.0849" x2="81.2709" y2="58.6098" gradientUnits="userSpaceOnUse">
<stop stop-color="#DFDAD7"/>
<stop offset="0.0658409" stop-color="#CEC9C8"/>
<stop offset="0.1916" stop-color="#A49FA3"/>
<stop offset="0.264" stop-color="#8B878D"/>
<stop offset="0.5225" stop-color="#F3F4F4"/>
<stop offset="0.589" stop-color="#E2E1E2"/>
<stop offset="0.7167" stop-color="#B8B4B7"/>
<stop offset="0.8764" stop-color="#807C81"/>
<stop offset="1" stop-color="#A7A9AB"/>
</linearGradient>
<linearGradient id="paint17_linear_603_3521" x1="-0.202144" y1="58.0307" x2="81.2804" y2="58.5556" gradientUnits="userSpaceOnUse">
<stop stop-color="#DFDAD7"/>
<stop offset="0.0658409" stop-color="#CEC9C8"/>
<stop offset="0.1916" stop-color="#A49FA3"/>
<stop offset="0.264" stop-color="#8B878D"/>
<stop offset="0.5225" stop-color="#F3F4F4"/>
<stop offset="0.589" stop-color="#E2E1E2"/>
<stop offset="0.7167" stop-color="#B8B4B7"/>
<stop offset="0.8764" stop-color="#807C81"/>
<stop offset="1" stop-color="#A7A9AB"/>
</linearGradient>
<linearGradient id="paint18_linear_603_3521" x1="-0.208193" y1="57.9685" x2="81.2743" y2="58.4935" gradientUnits="userSpaceOnUse">
<stop stop-color="#DFDAD7"/>
<stop offset="0.0658409" stop-color="#CEC9C8"/>
<stop offset="0.1916" stop-color="#A49FA3"/>
<stop offset="0.264" stop-color="#8B878D"/>
<stop offset="0.5225" stop-color="#F3F4F4"/>
<stop offset="0.589" stop-color="#E2E1E2"/>
<stop offset="0.7167" stop-color="#B8B4B7"/>
<stop offset="0.8764" stop-color="#807C81"/>
<stop offset="1" stop-color="#A7A9AB"/>
</linearGradient>
<linearGradient id="paint19_linear_603_3521" x1="-0.210159" y1="57.9121" x2="81.2723" y2="58.437" gradientUnits="userSpaceOnUse">
<stop stop-color="#DFDAD7"/>
<stop offset="0.0658409" stop-color="#CEC9C8"/>
<stop offset="0.1916" stop-color="#A49FA3"/>
<stop offset="0.264" stop-color="#8B878D"/>
<stop offset="0.5225" stop-color="#F3F4F4"/>
<stop offset="0.589" stop-color="#E2E1E2"/>
<stop offset="0.7167" stop-color="#B8B4B7"/>
<stop offset="0.8764" stop-color="#807C81"/>
<stop offset="1" stop-color="#A7A9AB"/>
</linearGradient>
<linearGradient id="paint20_linear_603_3521" x1="-0.201988" y1="57.821" x2="81.2804" y2="58.3459" gradientUnits="userSpaceOnUse">
<stop stop-color="#DFDAD7"/>
<stop offset="0.0658409" stop-color="#CEC9C8"/>
<stop offset="0.1916" stop-color="#A49FA3"/>
<stop offset="0.264" stop-color="#8B878D"/>
<stop offset="0.5225" stop-color="#F3F4F4"/>
<stop offset="0.589" stop-color="#E2E1E2"/>
<stop offset="0.7167" stop-color="#B8B4B7"/>
<stop offset="0.8764" stop-color="#807C81"/>
<stop offset="1" stop-color="#A7A9AB"/>
</linearGradient>
<linearGradient id="paint21_linear_603_3521" x1="-0.20744" y1="57.786" x2="81.2751" y2="58.3109" gradientUnits="userSpaceOnUse">
<stop stop-color="#DFDAD7"/>
<stop offset="0.0658409" stop-color="#CEC9C8"/>
<stop offset="0.1916" stop-color="#A49FA3"/>
<stop offset="0.264" stop-color="#8B878D"/>
<stop offset="0.5225" stop-color="#F3F4F4"/>
<stop offset="0.589" stop-color="#E2E1E2"/>
<stop offset="0.7167" stop-color="#B8B4B7"/>
<stop offset="0.8764" stop-color="#807C81"/>
<stop offset="1" stop-color="#A7A9AB"/>
</linearGradient>
<linearGradient id="paint22_linear_603_3521" x1="-0.20471" y1="57.7527" x2="81.2779" y2="58.2776" gradientUnits="userSpaceOnUse">
<stop stop-color="#DFDAD7"/>
<stop offset="0.0658409" stop-color="#CEC9C8"/>
<stop offset="0.1916" stop-color="#A49FA3"/>
<stop offset="0.264" stop-color="#8B878D"/>
<stop offset="0.5225" stop-color="#F3F4F4"/>
<stop offset="0.589" stop-color="#E2E1E2"/>
<stop offset="0.7167" stop-color="#B8B4B7"/>
<stop offset="0.8764" stop-color="#807C81"/>
<stop offset="1" stop-color="#A7A9AB"/>
</linearGradient>
<linearGradient id="paint23_linear_603_3521" x1="-0.202159" y1="57.7015" x2="81.2803" y2="58.2264" gradientUnits="userSpaceOnUse">
<stop stop-color="#DFDAD7"/>
<stop offset="0.0658409" stop-color="#CEC9C8"/>
<stop offset="0.1916" stop-color="#A49FA3"/>
<stop offset="0.264" stop-color="#8B878D"/>
<stop offset="0.5225" stop-color="#F3F4F4"/>
<stop offset="0.589" stop-color="#E2E1E2"/>
<stop offset="0.7167" stop-color="#B8B4B7"/>
<stop offset="0.8764" stop-color="#807C81"/>
<stop offset="1" stop-color="#A7A9AB"/>
</linearGradient>
<linearGradient id="paint24_linear_603_3521" x1="-0.199455" y1="57.6475" x2="81.283" y2="58.1724" gradientUnits="userSpaceOnUse">
<stop stop-color="#DFDAD7"/>
<stop offset="0.0658409" stop-color="#CEC9C8"/>
<stop offset="0.1916" stop-color="#A49FA3"/>
<stop offset="0.264" stop-color="#8B878D"/>
<stop offset="0.5225" stop-color="#F3F4F4"/>
<stop offset="0.589" stop-color="#E2E1E2"/>
<stop offset="0.7167" stop-color="#B8B4B7"/>
<stop offset="0.8764" stop-color="#807C81"/>
<stop offset="1" stop-color="#A7A9AB"/>
</linearGradient>
<linearGradient id="paint25_linear_603_3521" x1="-0.293592" y1="67.7026" x2="81.3244" y2="68.2293" gradientUnits="userSpaceOnUse">
<stop stop-color="#DFDAD7"/>
<stop offset="0.0658409" stop-color="#CEC9C8"/>
<stop offset="0.1916" stop-color="#A49FA3"/>
<stop offset="0.264" stop-color="#8B878D"/>
<stop offset="0.5225" stop-color="#F3F4F4"/>
<stop offset="0.589" stop-color="#E2E1E2"/>
<stop offset="0.7167" stop-color="#B8B4B7"/>
<stop offset="0.8764" stop-color="#807C81"/>
<stop offset="1" stop-color="#A7A9AB"/>
</linearGradient>
<linearGradient id="paint26_linear_603_3521" x1="-0.272545" y1="68.1517" x2="81.21" y2="68.6766" gradientUnits="userSpaceOnUse">
<stop stop-color="#DFDAD7"/>
<stop offset="0.0658409" stop-color="#CEC9C8"/>
<stop offset="0.1916" stop-color="#A49FA3"/>
<stop offset="0.264" stop-color="#8B878D"/>
<stop offset="0.5225" stop-color="#F3F4F4"/>
<stop offset="0.589" stop-color="#E2E1E2"/>
<stop offset="0.7167" stop-color="#B8B4B7"/>
<stop offset="0.8764" stop-color="#807C81"/>
<stop offset="1" stop-color="#A7A9AB"/>
</linearGradient>
<linearGradient id="paint27_linear_603_3521" x1="-0.278198" y1="68.1119" x2="81.2041" y2="68.6368" gradientUnits="userSpaceOnUse">
<stop stop-color="#DFDAD7"/>
<stop offset="0.0658409" stop-color="#CEC9C8"/>
<stop offset="0.1916" stop-color="#A49FA3"/>
<stop offset="0.264" stop-color="#8B878D"/>
<stop offset="0.5225" stop-color="#F3F4F4"/>
<stop offset="0.589" stop-color="#E2E1E2"/>
<stop offset="0.7167" stop-color="#B8B4B7"/>
<stop offset="0.8764" stop-color="#807C81"/>
<stop offset="1" stop-color="#A7A9AB"/>
</linearGradient>
<linearGradient id="paint28_linear_603_3521" x1="-0.27641" y1="68.1113" x2="81.2061" y2="68.6362" gradientUnits="userSpaceOnUse">
<stop stop-color="#DFDAD7"/>
<stop offset="0.0658409" stop-color="#CEC9C8"/>
<stop offset="0.1916" stop-color="#A49FA3"/>
<stop offset="0.264" stop-color="#8B878D"/>
<stop offset="0.5225" stop-color="#F3F4F4"/>
<stop offset="0.589" stop-color="#E2E1E2"/>
<stop offset="0.7167" stop-color="#B8B4B7"/>
<stop offset="0.8764" stop-color="#807C81"/>
<stop offset="1" stop-color="#A7A9AB"/>
</linearGradient>
<linearGradient id="paint29_linear_603_3521" x1="-0.274636" y1="68.0528" x2="81.2077" y2="68.5777" gradientUnits="userSpaceOnUse">
<stop stop-color="#DFDAD7"/>
<stop offset="0.0658409" stop-color="#CEC9C8"/>
<stop offset="0.1916" stop-color="#A49FA3"/>
<stop offset="0.264" stop-color="#8B878D"/>
<stop offset="0.5225" stop-color="#F3F4F4"/>
<stop offset="0.589" stop-color="#E2E1E2"/>
<stop offset="0.7167" stop-color="#B8B4B7"/>
<stop offset="0.8764" stop-color="#807C81"/>
<stop offset="1" stop-color="#A7A9AB"/>
</linearGradient>
<linearGradient id="paint30_linear_603_3521" x1="-0.27238" y1="68.4061" x2="81.21" y2="68.931" gradientUnits="userSpaceOnUse">
<stop stop-color="#DFDAD7"/>
<stop offset="0.0658409" stop-color="#CEC9C8"/>
<stop offset="0.1916" stop-color="#A49FA3"/>
<stop offset="0.264" stop-color="#8B878D"/>
<stop offset="0.5225" stop-color="#F3F4F4"/>
<stop offset="0.589" stop-color="#E2E1E2"/>
<stop offset="0.7167" stop-color="#B8B4B7"/>
<stop offset="0.8764" stop-color="#807C81"/>
<stop offset="1" stop-color="#A7A9AB"/>
</linearGradient>
<linearGradient id="paint31_linear_603_3521" x1="-0.273255" y1="68.0299" x2="81.2091" y2="68.5549" gradientUnits="userSpaceOnUse">
<stop stop-color="#DFDAD7"/>
<stop offset="0.0658409" stop-color="#CEC9C8"/>
<stop offset="0.1916" stop-color="#A49FA3"/>
<stop offset="0.264" stop-color="#8B878D"/>
<stop offset="0.5225" stop-color="#F3F4F4"/>
<stop offset="0.589" stop-color="#E2E1E2"/>
<stop offset="0.7167" stop-color="#B8B4B7"/>
<stop offset="0.8764" stop-color="#807C81"/>
<stop offset="1" stop-color="#A7A9AB"/>
</linearGradient>
<linearGradient id="paint32_linear_603_3521" x1="-0.271301" y1="67.5624" x2="81.2112" y2="68.0873" gradientUnits="userSpaceOnUse">
<stop stop-color="#DFDAD7"/>
<stop offset="0.0658409" stop-color="#CEC9C8"/>
<stop offset="0.1916" stop-color="#A49FA3"/>
<stop offset="0.264" stop-color="#8B878D"/>
<stop offset="0.5225" stop-color="#F3F4F4"/>
<stop offset="0.589" stop-color="#E2E1E2"/>
<stop offset="0.7167" stop-color="#B8B4B7"/>
<stop offset="0.8764" stop-color="#807C81"/>
<stop offset="1" stop-color="#A7A9AB"/>
</linearGradient>
<linearGradient id="paint33_linear_603_3521" x1="-0.279186" y1="67.9862" x2="81.2031" y2="68.5111" gradientUnits="userSpaceOnUse">
<stop stop-color="#DFDAD7"/>
<stop offset="0.0658409" stop-color="#CEC9C8"/>
<stop offset="0.1916" stop-color="#A49FA3"/>
<stop offset="0.264" stop-color="#8B878D"/>
<stop offset="0.5225" stop-color="#F3F4F4"/>
<stop offset="0.589" stop-color="#E2E1E2"/>
<stop offset="0.7167" stop-color="#B8B4B7"/>
<stop offset="0.8764" stop-color="#807C81"/>
<stop offset="1" stop-color="#A7A9AB"/>
</linearGradient>
<linearGradient id="paint34_linear_603_3521" x1="-0.338821" y1="67.519" x2="81.2792" y2="68.0456" gradientUnits="userSpaceOnUse">
<stop stop-color="#DFDAD7"/>
<stop offset="0.0658409" stop-color="#CEC9C8"/>
<stop offset="0.1916" stop-color="#A49FA3"/>
<stop offset="0.264" stop-color="#8B878D"/>
<stop offset="0.5225" stop-color="#F3F4F4"/>
<stop offset="0.589" stop-color="#E2E1E2"/>
<stop offset="0.7167" stop-color="#B8B4B7"/>
<stop offset="0.8764" stop-color="#807C81"/>
<stop offset="1" stop-color="#A7A9AB"/>
</linearGradient>
<linearGradient id="paint35_linear_603_3521" x1="-0.275233" y1="67.956" x2="81.207" y2="68.4809" gradientUnits="userSpaceOnUse">
<stop stop-color="#DFDAD7"/>
<stop offset="0.0658409" stop-color="#CEC9C8"/>
<stop offset="0.1916" stop-color="#A49FA3"/>
<stop offset="0.264" stop-color="#8B878D"/>
<stop offset="0.5225" stop-color="#F3F4F4"/>
<stop offset="0.589" stop-color="#E2E1E2"/>
<stop offset="0.7167" stop-color="#B8B4B7"/>
<stop offset="0.8764" stop-color="#807C81"/>
<stop offset="1" stop-color="#A7A9AB"/>
</linearGradient>
<linearGradient id="paint36_linear_603_3521" x1="-0.26743" y1="67.6234" x2="81.2152" y2="68.1483" gradientUnits="userSpaceOnUse">
<stop stop-color="#DFDAD7"/>
<stop offset="0.0658409" stop-color="#CEC9C8"/>
<stop offset="0.1916" stop-color="#A49FA3"/>
<stop offset="0.264" stop-color="#8B878D"/>
<stop offset="0.5225" stop-color="#F3F4F4"/>
<stop offset="0.589" stop-color="#E2E1E2"/>
<stop offset="0.7167" stop-color="#B8B4B7"/>
<stop offset="0.8764" stop-color="#807C81"/>
<stop offset="1" stop-color="#A7A9AB"/>
</linearGradient>
<linearGradient id="paint37_linear_603_3521" x1="-0.275335" y1="67.9211" x2="81.2074" y2="68.446" gradientUnits="userSpaceOnUse">
<stop stop-color="#DFDAD7"/>
<stop offset="0.0658409" stop-color="#CEC9C8"/>
<stop offset="0.1916" stop-color="#A49FA3"/>
<stop offset="0.264" stop-color="#8B878D"/>
<stop offset="0.5225" stop-color="#F3F4F4"/>
<stop offset="0.589" stop-color="#E2E1E2"/>
<stop offset="0.7167" stop-color="#B8B4B7"/>
<stop offset="0.8764" stop-color="#807C81"/>
<stop offset="1" stop-color="#A7A9AB"/>
</linearGradient>
<linearGradient id="paint38_linear_603_3521" x1="-0.270074" y1="67.5559" x2="81.2128" y2="68.0809" gradientUnits="userSpaceOnUse">
<stop stop-color="#DFDAD7"/>
<stop offset="0.0658409" stop-color="#CEC9C8"/>
<stop offset="0.1916" stop-color="#A49FA3"/>
<stop offset="0.264" stop-color="#8B878D"/>
<stop offset="0.5225" stop-color="#F3F4F4"/>
<stop offset="0.589" stop-color="#E2E1E2"/>
<stop offset="0.7167" stop-color="#B8B4B7"/>
<stop offset="0.8764" stop-color="#807C81"/>
<stop offset="1" stop-color="#A7A9AB"/>
</linearGradient>
<linearGradient id="paint39_linear_603_3521" x1="-0.273668" y1="67.8474" x2="81.2085" y2="68.3723" gradientUnits="userSpaceOnUse">
<stop stop-color="#DFDAD7"/>
<stop offset="0.0658409" stop-color="#CEC9C8"/>
<stop offset="0.1916" stop-color="#A49FA3"/>
<stop offset="0.264" stop-color="#8B878D"/>
<stop offset="0.5225" stop-color="#F3F4F4"/>
<stop offset="0.589" stop-color="#E2E1E2"/>
<stop offset="0.7167" stop-color="#B8B4B7"/>
<stop offset="0.8764" stop-color="#807C81"/>
<stop offset="1" stop-color="#A7A9AB"/>
</linearGradient>
<linearGradient id="paint40_linear_603_3521" x1="-0.370473" y1="67.3537" x2="81.246" y2="67.8804" gradientUnits="userSpaceOnUse">
<stop stop-color="#DFDAD7"/>
<stop offset="0.0658409" stop-color="#CEC9C8"/>
<stop offset="0.1916" stop-color="#A49FA3"/>
<stop offset="0.264" stop-color="#8B878D"/>
<stop offset="0.5225" stop-color="#F3F4F4"/>
<stop offset="0.589" stop-color="#E2E1E2"/>
<stop offset="0.7167" stop-color="#B8B4B7"/>
<stop offset="0.8764" stop-color="#807C81"/>
<stop offset="1" stop-color="#A7A9AB"/>
</linearGradient>
<linearGradient id="paint41_linear_603_3521" x1="-0.372219" y1="67.3757" x2="81.2444" y2="67.9023" gradientUnits="userSpaceOnUse">
<stop stop-color="#DFDAD7"/>
<stop offset="0.0658409" stop-color="#CEC9C8"/>
<stop offset="0.1916" stop-color="#A49FA3"/>
<stop offset="0.264" stop-color="#8B878D"/>
<stop offset="0.5225" stop-color="#F3F4F4"/>
<stop offset="0.589" stop-color="#E2E1E2"/>
<stop offset="0.7167" stop-color="#B8B4B7"/>
<stop offset="0.8764" stop-color="#807C81"/>
<stop offset="1" stop-color="#A7A9AB"/>
</linearGradient>
<linearGradient id="paint42_linear_603_3521" x1="-0.377118" y1="67.3636" x2="81.2422" y2="67.8903" gradientUnits="userSpaceOnUse">
<stop stop-color="#DFDAD7"/>
<stop offset="0.0658409" stop-color="#CEC9C8"/>
<stop offset="0.1916" stop-color="#A49FA3"/>
<stop offset="0.264" stop-color="#8B878D"/>
<stop offset="0.5225" stop-color="#F3F4F4"/>
<stop offset="0.589" stop-color="#E2E1E2"/>
<stop offset="0.7167" stop-color="#B8B4B7"/>
<stop offset="0.8764" stop-color="#807C81"/>
<stop offset="1" stop-color="#A7A9AB"/>
</linearGradient>
<linearGradient id="paint43_linear_603_3521" x1="-0.269578" y1="67.7967" x2="81.2128" y2="68.3216" gradientUnits="userSpaceOnUse">
<stop stop-color="#DFDAD7"/>
<stop offset="0.0658409" stop-color="#CEC9C8"/>
<stop offset="0.1916" stop-color="#A49FA3"/>
<stop offset="0.264" stop-color="#8B878D"/>
<stop offset="0.5225" stop-color="#F3F4F4"/>
<stop offset="0.589" stop-color="#E2E1E2"/>
<stop offset="0.7167" stop-color="#B8B4B7"/>
<stop offset="0.8764" stop-color="#807C81"/>
<stop offset="1" stop-color="#A7A9AB"/>
</linearGradient>
<linearGradient id="paint44_linear_603_3521" x1="-0.265766" y1="67.7778" x2="81.2165" y2="68.3027" gradientUnits="userSpaceOnUse">
<stop stop-color="#DFDAD7"/>
<stop offset="0.0658409" stop-color="#CEC9C8"/>
<stop offset="0.1916" stop-color="#A49FA3"/>
<stop offset="0.264" stop-color="#8B878D"/>
<stop offset="0.5225" stop-color="#F3F4F4"/>
<stop offset="0.589" stop-color="#E2E1E2"/>
<stop offset="0.7167" stop-color="#B8B4B7"/>
<stop offset="0.8764" stop-color="#807C81"/>
<stop offset="1" stop-color="#A7A9AB"/>
</linearGradient>
</defs>
</svg>
