<svg width="20" height="15" viewBox="0 0 20 15" fill="none" xmlns="http://www.w3.org/2000/svg">
<path d="M7.25066 2.99687C7.31387 2.99666 7.37607 2.98099 7.43184 2.95122C7.48776 2.92137 7.5355 2.87826 7.57088 2.82567C7.60627 2.77307 7.6282 2.7126 7.63478 2.64956C7.64135 2.58651 7.63236 2.52282 7.60859 2.46406L7.60859 2.46406L7.6083 2.46336L7.00674 1.01805L7.00675 1.01805L7.00625 1.0169C6.96578 0.92404 6.89119 0.850259 6.7979 0.810788C6.7046 0.771317 6.59971 0.769168 6.50488 0.804785L6.50482 0.804631L6.50031 0.806677C6.40715 0.84887 6.33351 0.924891 6.2943 1.01934C6.2551 1.1138 6.25325 1.21962 6.28915 1.31538L6.2891 1.3154L6.29019 1.31801L6.89135 2.75456C6.91933 2.82666 6.96866 2.88851 7.03276 2.93182C7.09704 2.97526 7.17309 2.99796 7.25066 2.99687ZM7.25066 2.99687C7.25082 2.99687 7.25099 2.99687 7.25115 2.99686L7.25 2.92187L7.25015 2.99687C7.25032 2.99687 7.25049 2.99687 7.25066 2.99687ZM3.35861 6.88749C3.43622 6.8886 3.5123 6.86591 3.57662 6.82245C3.64087 6.77904 3.69028 6.71699 3.71822 6.64467C3.75633 6.54973 3.75535 6.44357 3.71549 6.34933C3.67558 6.25502 3.59997 6.18034 3.50518 6.14161C3.50508 6.14157 3.50497 6.14152 3.50487 6.14148L2.06802 5.54018L2.06804 5.54014L2.06539 5.53914C1.96962 5.50325 1.8638 5.50509 1.76935 5.5443C1.67489 5.58351 1.59887 5.65715 1.55668 5.7503L1.55662 5.75028L1.55544 5.7532C1.5171 5.84828 1.51801 5.95468 1.55795 6.0491C1.59785 6.14341 1.67347 6.21809 1.76826 6.25682C1.76836 6.25687 1.76847 6.25691 1.76857 6.25695L3.21337 6.8583L3.21369 6.85843C3.25969 6.87733 3.30889 6.8872 3.35861 6.88749ZM3.35861 6.88749C3.35848 6.88749 3.35835 6.88749 3.35823 6.88749L3.35938 6.8125L3.359 6.8875C3.35887 6.8875 3.35874 6.88749 3.35861 6.88749ZM16.7866 6.8583L16.7863 6.85843C16.7402 6.87738 16.6909 6.88725 16.641 6.8875M16.7866 6.8583L16.641 6.8875M16.7866 6.8583L18.2314 6.25695C18.2315 6.25691 18.2316 6.25687 18.2317 6.25682C18.3265 6.21809 18.4021 6.14341 18.442 6.0491C18.482 5.95468 18.4829 5.84828 18.4446 5.7532L18.4446 5.75317L18.4433 5.7503C18.4011 5.65715 18.3251 5.58351 18.2307 5.5443C18.1362 5.50509 18.0304 5.50325 17.9346 5.53914L17.9346 5.53909L17.932 5.54018L16.4951 6.14148C16.495 6.14152 16.4949 6.14157 16.4948 6.14161C16.4 6.18034 16.3244 6.25502 16.2845 6.34933C16.2446 6.44356 16.2437 6.54973 16.2818 6.64467M16.7866 6.8583L16.2818 6.64467M16.641 6.8875C16.5635 6.88852 16.4876 6.86583 16.4234 6.82245C16.3591 6.77904 16.3097 6.71699 16.2818 6.64467M16.641 6.8875L16.2818 6.64467M12.7492 2.99687C12.8268 2.99798 12.9029 2.97528 12.9672 2.93182C13.0313 2.88851 13.0807 2.82666 13.1087 2.75455L13.7098 1.31801L13.7099 1.31803L13.7109 1.31538C13.7467 1.21962 13.7449 1.1138 13.7057 1.01934C13.6665 0.924891 13.5929 0.84887 13.4997 0.806677L13.4998 0.806528L13.4951 0.804785C13.4003 0.769168 13.2954 0.771317 13.2021 0.810788C13.1088 0.850259 13.0342 0.92404 12.9937 1.0169L12.9933 1.01805L12.3917 2.46336L12.3914 2.46414C12.353 2.55922 12.3539 2.66562 12.3939 2.76003C12.4338 2.85442 12.5095 2.92914 12.6044 2.96785M12.7492 2.99687C12.6995 2.99657 12.6504 2.98672 12.6044 2.96785M12.7492 2.99687C12.7491 2.99687 12.749 2.99686 12.7489 2.99686L12.75 2.92187L12.7496 2.99687C12.7495 2.99687 12.7494 2.99687 12.7492 2.99687ZM12.6044 2.96785C12.6044 2.96786 12.6045 2.96787 12.6045 2.96789L12.6328 2.89843L12.6043 2.96781C12.6043 2.96782 12.6044 2.96783 12.6044 2.96785ZM4.925 9.25L4.925 9.25027C4.92604 9.53918 4.95008 9.8275 4.99688 10.1125H1.25C1.14723 10.1125 1.04867 10.1533 0.975996 10.226C0.903326 10.2987 0.8625 10.3972 0.8625 10.5C0.8625 10.6028 0.903326 10.7013 0.975996 10.774C1.04867 10.8467 1.14723 10.8875 1.25 10.8875H18.75C18.8528 10.8875 18.9513 10.8467 19.024 10.774C19.0967 10.7013 19.1375 10.6028 19.1375 10.5C19.1375 10.3972 19.0967 10.2987 19.024 10.226C18.9513 10.1533 18.8528 10.1125 18.75 10.1125H15.0031C15.0499 9.8275 15.074 9.53918 15.075 9.25027V9.25C15.075 7.90402 14.5403 6.61318 13.5886 5.66143C12.6368 4.70968 11.346 4.175 10 4.175C8.65403 4.175 7.36318 4.70968 6.41143 5.66143C5.45969 6.61318 4.925 7.90402 4.925 9.25ZM14.3 9.25L14.3 9.25043C14.3017 9.54011 14.2725 9.8291 14.213 10.1125H5.787C5.7275 9.8291 5.69833 9.54011 5.7 9.25043V9.25C5.7 8.10957 6.15303 7.01584 6.95944 6.20944C7.76585 5.40303 8.85957 4.95 10 4.95C11.1404 4.95 12.2342 5.40303 13.0406 6.20944C13.847 7.01584 14.3 8.10957 14.3 9.25ZM3.75 13.2375C3.64723 13.2375 3.54867 13.2783 3.476 13.351C3.40333 13.4237 3.3625 13.5222 3.3625 13.625C3.3625 13.7278 3.40333 13.8263 3.476 13.899C3.54867 13.9717 3.64723 14.0125 3.75 14.0125H16.25C16.3528 14.0125 16.4513 13.9717 16.524 13.899C16.5967 13.8263 16.6375 13.7278 16.6375 13.625C16.6375 13.5222 16.5967 13.4237 16.524 13.351C16.4513 13.2783 16.3528 13.2375 16.25 13.2375H3.75Z" fill="white" stroke="white" stroke-width="0.15"/>
</svg>
